<?xml version="1.0" encoding="UTF-8"?>
<svg xmlns="http://www.w3.org/2000/svg" xmlns:xlink="http://www.w3.org/1999/xlink" viewBox="0 0 512 512" width="512px" height="512px">
<g id="surface75751028">
<path style=" stroke:none;fill-rule:nonzero;fill:rgb(96.862745%,16.862746%,10.980392%);fill-opacity:1;" d="M 64 448 L 64 64 L 448 64 L 448 448 Z M 64 448 "/>
<path style=" stroke:none;fill-rule:nonzero;fill:rgb(100%,100%,100%);fill-opacity:1;" d="M 315.070312 351.433594 C 322.453125 363.425781 330.476562 374.910156 347.464844 374.910156 C 361.738281 374.910156 369.226562 367.820312 369.226562 358.003906 C 369.226562 346.261719 361.484375 342.089844 345.78125 335.253906 L 337.171875 331.585938 C 312.332031 321.046875 295.808594 307.839844 295.808594 279.945312 C 295.808594 254.238281 315.488281 234.675781 346.238281 234.675781 C 368.136719 234.675781 383.871094 242.261719 395.222656 262.121094 L 368.40625 279.265625 C 362.507812 268.726562 356.128906 264.574219 346.238281 264.574219 C 336.148438 264.574219 329.761719 270.945312 329.761719 279.265625 C 329.761719 289.546875 336.160156 293.707031 350.933594 300.074219 L 359.542969 303.742188 C 388.820312 316.214844 405.332031 328.949219 405.332031 357.578125 C 405.332031 388.425781 380.972656 405.332031 348.265625 405.332031 C 316.277344 405.332031 298.113281 389.28125 288 369.40625 Z M 191.488281 352.308594 C 196.886719 361.972656 205.089844 369.40625 216.886719 369.40625 C 228.171875 369.40625 234.667969 364.949219 234.667969 347.617188 L 234.667969 234.667969 L 270.21875 234.667969 L 270.21875 353.078125 C 270.21875 388.992188 249.386719 405.332031 218.964844 405.332031 C 191.476562 405.332031 171.636719 386.710938 163.550781 369.40625 Z M 191.488281 352.308594 "/>
</g>
</svg>
