<?xml version="1.0"?>
<svg xmlns="http://www.w3.org/2000/svg" xmlns:xlink="http://www.w3.org/1999/xlink" xmlns:svgjs="http://svgjs.com/svgjs" version="1.1" width="512" height="512" x="0" y="0" viewBox="0 0 24 24" style="enable-background:new 0 0 512 512" xml:space="preserve" class=""><g><path xmlns="http://www.w3.org/2000/svg" d="m21.25 0h-18.5c-1.517 0-2.75 1.233-2.75 2.75v18.5c0 1.517 1.233 2.75 2.75 2.75h18.5c1.517 0 2.75-1.233 2.75-2.75v-18.5c0-1.517-1.233-2.75-2.75-2.75z" fill="#252525" data-original="#2196f3" style="" class=""/><g xmlns="http://www.w3.org/2000/svg" fill="#fafafa"><path d="m16 17h-8c-.553 0-1-.448-1-1s.447-1 1-1h8c.553 0 1 .448 1 1s-.447 1-1 1z" fill="#ffffff" data-original="#fafafa" style="" class=""/><path d="m16 13h-8c-.553 0-1-.448-1-1s.447-1 1-1h8c.553 0 1 .448 1 1s-.447 1-1 1z" fill="#ffffff" data-original="#fafafa" style="" class=""/><path d="m16 9h-8c-.553 0-1-.448-1-1s.447-1 1-1h8c.553 0 1 .448 1 1s-.447 1-1 1z" fill="#ffffff" data-original="#fafafa" style="" class=""/></g><path xmlns="http://www.w3.org/2000/svg" d="m12 0h-9.25c-1.517 0-2.75 1.233-2.75 2.75v18.5c0 1.517 1.233 2.75 2.75 2.75h9.25v-7h-4c-.553 0-1-.448-1-1s.447-1 1-1h4v-2h-4c-.553 0-1-.448-1-1s.447-1 1-1h4v-2h-4c-.553 0-1-.448-1-1s.447-1 1-1h4z" fill="#252525" data-original="#1d83d4" style="" class=""/><g xmlns="http://www.w3.org/2000/svg" fill="#dadada"><path d="m12 15h-4c-.553 0-1 .448-1 1s.447 1 1 1h4z" fill="#ffffff" data-original="#dadada" style="" class=""/><path d="m12 11h-4c-.553 0-1 .448-1 1s.447 1 1 1h4z" fill="#ffffff" data-original="#dadada" style="" class=""/><path d="m12 7h-4c-.553 0-1 .448-1 1s.447 1 1 1h4z" fill="#ffffff" data-original="#dadada" style="" class=""/></g></g></svg>
